# xmcd
#
# Track frame offsets:
#	150
#	17724
#	32739
#	54892
#	74562
#	94221
#	108003
#	123756
#	145450
#	161512
#
# Disc length: 2458 seconds
#
# Revision: 1
# Processed by: cddbd v1.5PL3 Copyright (c) Steve Scherf et al.
# Submitted via: CDex 1.50Beta5
#
DISCID=7f09980a
DTITLE=菅原祥子 - Come On!
DYEAR=1900
DGENRE=
TTITLE0=Come On!
TTITLE1=Sachi! a Special Day
TTITLE2=My Heart 元気になれ!
TTITLE3=12月の魔法
TTITLE4=Wish
TTITLE5=Yeah! Yeah! Drivin'
TTITLE6=Sparking Tonight
TTITLE7=しあわせな じ・か・ん
TTITLE8=Buena Suerte!
TTITLE9=乙女守歌
EXTD=
EXTT0=
EXTT1=
EXTT2=
EXTT3=
EXTT4=
EXTT5=
EXTT6=
EXTT7=
EXTT8=
EXTT9=
PLAYORDER=
